<?xml version="1.0" encoding="UTF-8" standalone="no"?><!DOCTYPE svg PUBLIC "-//W3C//DTD SVG 1.1//EN" "http://www.w3.org/Graphics/SVG/1.1/DTD/svg11.dtd"><svg width="100%" height="100%" viewBox="0 0 2344 2486" version="1.1" xmlns="http://www.w3.org/2000/svg" xmlns:xlink="http://www.w3.org/1999/xlink" xml:space="preserve" xmlns:serif="http://www.serif.com/" style="fill-rule:evenodd;clip-rule:evenodd;stroke-linejoin:round;stroke-miterlimit:1.41421;"><path d="M0,411.994l1156.32,-411.994l1187.46,404.669l-192.27,1529.87l-995.193,551.159l-979.624,-543.833l-176.7,-1529.87Zm1158.15,-121.764l-720.524,1603.12l269.163,-4.578l144.66,-361.645l646.37,0l158.391,366.223l257.261,4.577l-755.321,-1607.69Zm245.367,1022.66l-457.776,0l214.247,-509.035l243.529,509.035Z" style="fill:#002b4d;fill-opacity:0.341176;fill-rule:nonzero;"/><path d="M1156.32,294.299l0,-294.299l1187.46,404.669l-192.27,1530.79l-995.193,550.239l0,-958.576l341.498,0l158.391,366.223l257.261,4.577l-755.321,-1607.69l-1.829,4.069Zm247.196,1018.59l-247.196,0l0,-500.322l3.667,-8.713l243.529,509.035Z" style="fill:#002b4d;fill-opacity:0.447059;fill-rule:nonzero;"/></svg>