<?xml version="1.0" encoding="UTF-8" standalone="no"?><!DOCTYPE svg PUBLIC "-//W3C//DTD SVG 1.1//EN" "http://www.w3.org/Graphics/SVG/1.1/DTD/svg11.dtd"><svg width="100%" height="100%" viewBox="0 0 40 40" version="1.1" xmlns="http://www.w3.org/2000/svg" xmlns:xlink="http://www.w3.org/1999/xlink" xml:space="preserve" xmlns:serif="http://www.serif.com/" style="fill-rule:evenodd;clip-rule:evenodd;stroke-linejoin:round;stroke-miterlimit:1.41421;"><rect x="0" y="0" width="40" height="40" style="fill:#002b4d;"/><path d="M20,5c-8.493,0 -15.38,6.885 -15.38,15.38c0,6.795 4.407,12.56 10.518,14.594c0.769,0.142 1.051,-0.334 1.051,-0.74c0,-0.367 -0.014,-1.579 -0.021,-2.864c-4.279,0.931 -5.182,-1.814 -5.182,-1.814c-0.699,-1.778 -1.707,-2.251 -1.707,-2.251c-1.396,-0.954 0.105,-0.935 0.105,-0.935c1.544,0.109 2.357,1.585 2.357,1.585c1.372,2.351 3.598,1.672 4.476,1.279c0.138,-0.994 0.537,-1.673 0.976,-2.057c-3.416,-0.388 -7.007,-1.708 -7.007,-7.601c0,-1.679 0.601,-3.051 1.585,-4.128c-0.16,-0.387 -0.686,-1.951 0.149,-4.07c0,0 1.292,-0.413 4.231,1.577c1.226,-0.341 2.542,-0.512 3.849,-0.518c1.307,0.006 2.624,0.177 3.853,0.518c2.935,-1.99 4.225,-1.577 4.225,-1.577c0.837,2.119 0.311,3.683 0.151,4.07c0.986,1.077 1.583,2.449 1.583,4.128c0,5.908 -3.598,7.208 -7.023,7.589c0.552,0.477 1.043,1.413 1.043,2.848c0,2.058 -0.017,3.714 -0.017,4.221c0,0.409 0.276,0.889 1.056,0.738c6.108,-2.036 10.509,-7.799 10.509,-14.592c0,-8.495 -6.886,-15.38 -15.38,-15.38Z" style="fill:#004e8e;"/></svg>