<?xml version="1.0" encoding="UTF-8" standalone="no"?><!DOCTYPE svg PUBLIC "-//W3C//DTD SVG 1.1//EN" "http://www.w3.org/Graphics/SVG/1.1/DTD/svg11.dtd"><svg width="100%" height="100%" viewBox="0 0 114 114" version="1.1" xmlns="http://www.w3.org/2000/svg" xmlns:xlink="http://www.w3.org/1999/xlink" xml:space="preserve" xmlns:serif="http://www.serif.com/" style="fill-rule:evenodd;clip-rule:evenodd;stroke-linejoin:round;stroke-miterlimit:1.41421;"><path d="M111.78,51.887l-49.745,-49.738c-2.862,-2.865 -7.508,-2.865 -10.374,0l-10.329,10.33l13.102,13.102c3.046,-1.029 6.537,-0.339 8.964,2.088c2.439,2.442 3.124,5.963 2.07,9.019l12.628,12.628c3.055,-1.052 6.58,-0.372 9.019,2.072c3.411,3.409 3.411,8.934 0,12.345c-3.411,3.411 -8.936,3.411 -12.349,0c-2.564,-2.567 -3.199,-6.335 -1.9,-9.495l-11.777,-11.777l-0.001,30.991c0.832,0.412 1.616,0.961 2.309,1.651c3.41,3.41 3.41,8.933 0,12.348c-3.41,3.409 -8.938,3.409 -12.345,0c-3.41,-3.414 -3.41,-8.938 0,-12.348c0.843,-0.841 1.818,-1.478 2.859,-1.904l0,-31.279c-1.041,-0.425 -2.015,-1.057 -2.859,-1.905c-2.583,-2.581 -3.205,-6.372 -1.881,-9.544l-12.916,-12.918l-34.106,34.105c-2.865,2.867 -2.865,7.513 0,10.378l49.742,49.739c2.864,2.864 7.508,2.864 10.376,0l49.512,-49.504c2.865,-2.867 2.865,-7.514 0,-10.379" style="fill:#002b4d;fill-opacity:0.478431;fill-rule:nonzero;"/></svg>