<?xml version="1.0" encoding="UTF-8" standalone="no"?><!DOCTYPE svg PUBLIC "-//W3C//DTD SVG 1.1//EN" "http://www.w3.org/Graphics/SVG/1.1/DTD/svg11.dtd"><svg width="100%" height="100%" viewBox="0 0 2499 2374" version="1.1" xmlns="http://www.w3.org/2000/svg" xmlns:xlink="http://www.w3.org/1999/xlink" xml:space="preserve" xmlns:serif="http://www.serif.com/" style="fill-rule:evenodd;clip-rule:evenodd;stroke-linejoin:round;stroke-miterlimit:1.41421;"><path d="M1736.29,1165.99l-17.578,-30.273l-588.856,-192.379l-16.601,19.531l-25.39,5.859l-523.427,1222.63l6.836,37.109l1260.72,-532.216l10.742,-21.484l-87.889,-488.272l-18.554,-20.507Z" style="fill:#78758c;fill-opacity:0.4;fill-rule:nonzero;"/><path d="M571.278,2228.47l541.981,-1265.6l-1113.26,-363.274l571.278,1628.87Z" style="fill:#a3edba;fill-opacity:0.4;fill-rule:nonzero;"/><path d="M1526.34,0l-413.078,962.872l623.035,203.121l2.929,-7.813l-208.98,-1149.39l-3.906,-8.789Z" style="fill:#8087e8;fill-opacity:0.4;fill-rule:nonzero;"/><path d="M1736.29,1165.99l95.701,530.263l43.945,-0.977l596.667,-258.784l26.367,-22.46l-31.249,-26.367l-702.135,-236.324l-29.296,14.649Z" style="fill:#30426b;fill-opacity:0.4;fill-rule:nonzero;"/><path d="M1832,1696.26l122.068,677.721l544.911,-959.942l-666.979,282.221Zm-305.658,-1696.26l209.957,1165.99l762.68,248.042l-972.637,-1414.04Z" style="fill:#6699a1;fill-opacity:0.4;fill-rule:nonzero;"/></svg>