<?xml version="1.0" encoding="UTF-8" standalone="no"?><!DOCTYPE svg PUBLIC "-//W3C//DTD SVG 1.1//EN" "http://www.w3.org/Graphics/SVG/1.1/DTD/svg11.dtd"><svg width="100%" height="100%" viewBox="0 0 380 435" version="1.1" xmlns="http://www.w3.org/2000/svg" xmlns:xlink="http://www.w3.org/1999/xlink" xml:space="preserve" xmlns:serif="http://www.serif.com/" style="fill-rule:evenodd;clip-rule:evenodd;stroke-linejoin:round;stroke-miterlimit:1.41421;"><path d="M0.041,14.372l28.177,360.474c0.423,5.413 4.087,10.029 9.263,11.67l148.268,47.008c2.622,0.831 5.437,0.831 8.059,0l148.268,-47.008c5.176,-1.641 8.84,-6.257 9.263,-11.67l28.177,-360.474c0.606,-7.75 -5.519,-14.372 -13.292,-14.372l-183.674,0l-169.216,0c-7.773,0 -13.898,6.622 -13.293,14.372Zm307.217,111.843l-183.635,0l5.542,51.105l174.099,0l-11.389,145.693l-102.096,32.369l-102.096,-32.369l-5.95,-76.116l53.588,0l0,37.336l55.89,15l55.556,-15l4.31,-59.503l-171.077,0l-11.358,-145.311l242.273,0l-3.657,46.796Z" style="fill:#00004d;fill-rule:nonzero;"/></svg>