<?xml version="1.0" encoding="UTF-8" standalone="no"?><!DOCTYPE svg PUBLIC "-//W3C//DTD SVG 1.1//EN" "http://www.w3.org/Graphics/SVG/1.1/DTD/svg11.dtd"><svg width="100%" height="100%" viewBox="0 0 256 289" version="1.1" xmlns="http://www.w3.org/2000/svg" xmlns:xlink="http://www.w3.org/1999/xlink" xml:space="preserve" xmlns:serif="http://www.serif.com/" style="fill-rule:evenodd;clip-rule:evenodd;stroke-linejoin:round;stroke-miterlimit:1.41421;"><path d="M128,288.464c-3.975,0 -7.685,-1.06 -11.13,-2.915l-35.247,-20.936c-5.3,-2.915 -2.65,-3.975 -1.06,-4.505c7.155,-2.385 8.48,-2.915 15.901,-7.156c0.795,-0.53 1.855,-0.265 2.65,0.265l27.031,16.166c1.06,0.53 2.385,0.53 3.18,0l105.739,-61.217c1.06,-0.53 1.59,-1.59 1.59,-2.915l0,-122.17c0,-1.325 -0.53,-2.385 -1.59,-2.915l-105.739,-60.953c-1.06,-0.53 -2.385,-0.53 -3.18,0l-105.739,60.953c-1.06,0.53 -1.59,1.855 -1.59,2.915l0,122.17c0,1.06 0.53,2.385 1.59,2.915l28.886,16.695c15.636,7.951 25.441,-1.325 25.441,-10.6l0,-120.58c0,-1.59 1.325,-3.18 3.18,-3.18l13.516,0c1.59,0 3.18,1.325 3.18,3.18l0,120.58c0,20.936 -11.396,33.126 -31.272,33.126c-6.095,0 -10.865,0 -24.38,-6.625l-27.827,-15.901c-6.89,-3.975 -11.13,-11.395 -11.13,-19.345l0,-122.17c0,-7.951 4.24,-15.371 11.13,-19.346l105.74,-61.217c6.625,-3.711 15.635,-3.711 22.26,0l105.74,61.217c6.89,3.975 11.13,11.395 11.13,19.346l0,122.17c0,7.95 -4.24,15.37 -11.13,19.345l-105.74,61.218c-3.445,1.59 -7.42,2.385 -11.13,2.385Zm32.596,-84.009c-46.377,0 -55.917,-21.2 -55.917,-39.221c0,-1.59 1.325,-3.18 3.18,-3.18l13.781,0c1.59,0 2.915,1.06 2.915,2.65c2.12,14.045 8.215,20.936 36.306,20.936c22.261,0 31.802,-5.035 31.802,-16.961c0,-6.89 -2.651,-11.925 -37.367,-15.371c-28.886,-2.915 -46.907,-9.275 -46.907,-32.331c0,-21.466 18.021,-34.186 48.232,-34.186c33.921,0 50.617,11.66 52.737,37.101c0,0.795 -0.265,1.59 -0.795,2.385c-0.53,0.53 -1.325,1.06 -2.12,1.06l-13.78,0c-1.326,0 -2.651,-1.06 -2.916,-2.385c-3.18,-14.575 -11.395,-19.345 -33.126,-19.345c-24.381,0 -27.296,8.48 -27.296,14.84c0,7.686 3.445,10.071 36.306,14.311c32.597,4.24 47.967,10.335 47.967,33.126c-0.265,23.321 -19.345,36.571 -53.002,36.571Z" style="fill:#002b4d;fill-opacity:0.4;fill-rule:nonzero;"/></svg>