<?xml version="1.0" encoding="UTF-8" standalone="no"?><!DOCTYPE svg PUBLIC "-//W3C//DTD SVG 1.1//EN" "http://www.w3.org/Graphics/SVG/1.1/DTD/svg11.dtd"><svg width="100%" height="100%" viewBox="0 0 256 256" version="1.1" xmlns="http://www.w3.org/2000/svg" xmlns:xlink="http://www.w3.org/1999/xlink" xml:space="preserve" xmlns:serif="http://www.serif.com/" style="fill-rule:evenodd;clip-rule:evenodd;stroke-linejoin:round;stroke-miterlimit:1.41421;"><g><rect x="0" y="0" width="256" height="256" style="fill:#f7df1e;fill-opacity:0.101961;fill-rule:nonzero;"/><path d="M67.312,213.932l19.591,-11.856c3.779,6.701 7.217,12.371 15.464,12.371c7.905,0 12.889,-3.092 12.889,-15.12l0,-81.798l24.058,0l0,82.138c0,24.917 -14.606,36.259 -35.916,36.259c-19.245,0 -30.416,-9.967 -36.087,-21.996" style="fill:#fffdf5;fill-opacity:0.533333;fill-rule:nonzero;"/><path d="M152.381,211.354l19.588,-11.341c5.157,8.421 11.859,14.607 23.715,14.607c9.969,0 16.325,-4.984 16.325,-11.858c0,-8.248 -6.53,-11.17 -17.528,-15.98l-6.013,-2.579c-17.357,-7.388 -28.871,-16.668 -28.871,-36.258c0,-18.044 13.748,-31.792 35.229,-31.792c15.294,0 26.292,5.328 34.196,19.247l-18.731,12.029c-4.125,-7.389 -8.591,-10.31 -15.465,-10.31c-7.046,0 -11.514,4.468 -11.514,10.31c0,7.217 4.468,10.139 14.778,14.608l6.014,2.577c20.449,8.765 31.963,17.699 31.963,37.804c0,21.654 -17.012,33.51 -39.867,33.51c-22.339,0 -36.774,-10.654 -43.819,-24.574" style="fill:#fffdf5;fill-opacity:0.533333;fill-rule:nonzero;"/></g></svg>