<?xml version="1.0" encoding="UTF-8" standalone="no"?><!DOCTYPE svg PUBLIC "-//W3C//DTD SVG 1.1//EN" "http://www.w3.org/Graphics/SVG/1.1/DTD/svg11.dtd"><svg width="100%" height="100%" viewBox="0 0 40 40" version="1.1" xmlns="http://www.w3.org/2000/svg" xmlns:xlink="http://www.w3.org/1999/xlink" xml:space="preserve" xmlns:serif="http://www.serif.com/" style="fill-rule:evenodd;clip-rule:evenodd;stroke-linejoin:round;stroke-miterlimit:1.41421;"><rect x="0" y="0" width="40" height="40" style="fill:#002b4d;"/><path id="Person" d="M20.59,5.258c-8.606,0 -15.59,6.663 -15.59,14.871c0,8.209 6.984,14.871 15.59,14.871c8.605,0 15.59,-6.662 15.59,-14.871c0,-8.208 -6.985,-14.871 -15.59,-14.871Zm9.522,25.102c2.957,-2.507 4.82,-6.162 4.82,-10.231c0,-7.554 -6.423,-13.681 -14.342,-13.681c-7.92,0 -14.343,6.127 -14.343,13.681c0,4.069 1.864,7.724 4.821,10.231c1.693,-0.051 4.009,0.357 6.102,-1.888c0.612,-0.657 0.484,-2.452 0.302,-2.989c-0.736,-0.346 -1.212,-1.377 -1.247,-3.569c-0.685,0.01 -1.124,-0.221 -1.248,-0.595c-0.442,-1.346 -1.008,-2.773 0,-4.164c-1.359,-4.92 1.871,-7.733 5.613,-7.733c3.741,0 6.972,2.813 5.612,7.733c1.008,1.391 0.443,2.818 0,4.164c-0.123,0.374 -0.563,0.605 -1.247,0.595c-0.035,2.192 -0.511,3.223 -1.247,3.569c-0.182,0.537 -0.311,2.332 0.301,2.989c2.094,2.245 4.409,1.837 6.103,1.888Z" style="fill:#004e8e;"/></svg>