<?xml version="1.0" encoding="UTF-8" standalone="no"?><!DOCTYPE svg PUBLIC "-//W3C//DTD SVG 1.1//EN" "http://www.w3.org/Graphics/SVG/1.1/DTD/svg11.dtd"><svg width="100%" height="100%" viewBox="0 0 2094 443" version="1.1" xmlns="http://www.w3.org/2000/svg" xmlns:xlink="http://www.w3.org/1999/xlink" xml:space="preserve" xmlns:serif="http://www.serif.com/" style="fill-rule:evenodd;clip-rule:evenodd;stroke-linejoin:round;stroke-miterlimit:1.41421;"><path d="M1924.08,24.785c-2.246,0.449 -4.502,5.405 -4.502,8.106c-0.449,18.027 -0.899,65.791 -0.899,98.232c0,0.903 1.348,2.705 2.701,2.705c6.757,0.449 22.978,0.899 36.948,0.899c19.375,0 30.64,-2.701 36.953,-5.401c16.216,-8.115 23.877,-25.688 23.877,-45.068c0,-43.701 -30.64,-60.376 -76.152,-60.376c-3.155,-0.449 -12.159,-0.449 -18.926,0.903Zm116.26,201.416c0,-44.609 -32.896,-69.394 -92.373,-69.394c-2.706,0 -21.631,-0.45 -26.138,0.449c-1.353,0.454 -3.15,1.357 -3.15,2.71c0,31.987 -0.454,82.91 0.899,102.734c0.898,8.56 7.212,20.728 14.873,24.331c8.105,4.507 26.582,5.406 39.199,5.406c35.596,0 66.69,-19.825 66.69,-66.236Zm-208.174,-226.196c4.502,0 18.017,1.348 52.715,1.348c32.895,0 59.028,-0.899 91.02,-0.899c39.199,0 93.272,13.965 93.272,72.544c0,28.838 -20.279,51.821 -46.861,63.086c-1.347,0.449 -1.347,1.348 0,1.797c37.847,9.468 71.197,32.895 71.197,77.051c0,43.261 -27.037,70.747 -66.241,87.871c-23.882,10.361 -53.618,13.965 -83.808,13.965c-22.984,0 -84.712,-2.701 -118.955,-1.797c-3.604,-1.358 3.154,-17.578 6.303,-20.279c8.116,-0.454 14.419,-0.903 22.984,-3.608c12.168,-3.149 13.515,-6.758 15.317,-25.23c0.903,-15.771 0.903,-71.65 0.903,-111.298c0,-54.522 0.455,-91.47 0,-109.493c-0.449,-13.964 -5.405,-18.476 -15.317,-21.181c-7.666,-1.348 -20.278,-3.154 -30.644,-4.502c-2.256,-2.256 5.405,-17.578 8.115,-19.375Zm-260,280.268c10.82,8.555 31.997,12.159 50.923,12.159c24.331,0 48.662,-4.497 72.094,-25.684c23.882,-21.621 40.552,-54.966 40.552,-108.135c0,-50.923 -19.375,-92.378 -59.028,-116.704c-22.529,-13.974 -51.367,-19.824 -84.712,-19.824c-9.912,0 -19.375,0.449 -25.23,3.149c-1.357,0.904 -4.506,4.956 -4.506,7.207c-0.904,9.014 -0.904,78.404 -0.904,118.96c0,41.905 0,100.484 0.904,107.242c0,6.762 3.149,17.124 9.912,21.63l-0.005,0Zm-102.285,-280.273c8.564,0 41.455,1.353 57.226,1.353c28.394,0 48.667,-1.348 102.285,-1.348c45.059,0 82.911,12.163 109.947,35.141c32.89,28.389 50.019,67.593 50.019,115.352c0,68.042 -31.094,107.246 -62.187,129.775c-31.084,22.979 -71.641,36.495 -129.317,36.495c-30.639,0 -83.359,-0.899 -127.07,-1.353l-0.449,0c-2.251,-4.053 3.603,-19.824 7.207,-20.273c11.719,-1.353 14.873,-1.807 20.732,-4.053c9.458,-3.609 11.265,-8.565 12.617,-25.235c1.348,-31.093 0.899,-68.491 0.899,-110.849c0,-30.186 0.449,-89.219 -0.454,-108.145c-1.348,-15.766 -8.106,-19.824 -21.626,-22.529c-6.758,-1.348 -15.772,-3.154 -28.384,-4.502c-1.807,-3.159 6.304,-17.124 8.555,-19.824l0,-0.005Z" style="fill:#0069b9;fill-opacity:0.447059;"/><path d="M924.668,297.842c-11.265,-1.353 -19.375,-3.15 -29.287,-7.656c-1.353,-0.904 -3.609,-5.406 -3.609,-7.212c-0.898,-15.772 -0.898,-60.83 -0.898,-91.016c0,-24.336 -4.053,-45.513 -14.419,-60.381c-12.168,-17.129 -29.736,-27.036 -52.271,-27.036c-19.824,0 -46.411,13.516 -68.491,32.441c-0.449,0.45 -4.053,3.609 -3.603,-1.352c0,-4.956 0.903,-14.868 1.352,-21.631c0.454,-6.309 -3.154,-9.458 -3.154,-9.458c-14.419,7.207 -54.971,16.67 -69.844,18.018c-10.81,2.26 -13.515,12.622 -2.246,16.225l0.449,0c12.158,3.604 20.274,7.661 26.577,11.719c4.507,3.603 4.058,8.56 4.058,12.617c0.449,33.789 0.449,85.61 -0.898,113.999c-0.45,11.265 -3.604,15.318 -11.719,17.119l0.903,-0.449c-6.308,1.353 -11.264,2.7 -18.926,3.604c-2.705,2.705 -2.705,17.124 0,20.278c4.956,0 31.089,-1.353 52.725,-1.353c29.736,0 45.059,1.353 52.715,1.353c3.154,-3.604 4.057,-17.124 2.256,-20.278c-8.565,-0.45 -14.873,-1.348 -20.728,-3.155c-8.11,-1.806 -10.366,-5.854 -10.82,-15.317c-0.894,-23.887 -0.894,-74.351 -0.894,-108.594c0,-9.463 2.701,-13.97 5.401,-16.675c10.366,-9.008 27.041,-15.317 41.909,-15.317c14.419,0 23.877,4.507 31.089,10.366c9.912,8.106 13.066,19.824 14.419,28.384c2.251,19.375 1.352,57.676 1.352,91.02c0,18.023 -1.352,22.53 -8.105,24.781c-3.159,1.352 -11.27,3.159 -20.733,4.052c-3.154,3.16 -2.251,17.129 0,20.284c13.067,0 28.389,-1.353 50.918,-1.353c27.935,0 45.962,1.353 53.174,1.353c2.246,-2.705 3.15,-15.772 1.348,-19.38Zm124.814,-172.119c-23.877,0 -38.75,18.471 -38.75,47.304c0,29.292 13.067,63.086 50.015,63.086c6.308,0 18.027,-2.705 23.428,-9.013c8.564,-8.106 14.423,-24.331 14.423,-41.455c0,-37.398 -18.476,-59.927 -49.116,-59.927l0,0.005Zm-3.154,199.155c-9.009,0 -15.322,2.705 -19.375,4.961c-18.926,12.158 -27.485,23.877 -27.485,37.851c0,13.062 4.956,23.423 15.771,32.437c13.066,11.265 31.089,16.675 54.067,16.675c45.962,0 66.241,-24.785 66.241,-49.112c0,-17.128 -8.565,-28.393 -26.133,-34.697c-12.617,-5.41 -35.596,-8.115 -63.086,-8.115Zm3.154,117.158c-27.485,0 -47.314,-5.859 -64.433,-18.926c-16.675,-12.617 -23.882,-31.543 -23.882,-44.609c0,-3.604 0.903,-13.521 9.013,-22.529c4.952,-5.41 15.772,-15.772 41.456,-33.345c0.898,-0.449 1.347,-0.898 1.347,-1.807c0,-0.898 -0.903,-1.801 -1.802,-2.246c-21.176,-8.11 -27.485,-21.181 -29.292,-28.388l0,-0.904c-0.444,-2.705 -1.347,-5.405 2.71,-8.11c3.155,-2.251 7.662,-4.956 12.613,-8.106c7.661,-4.511 15.771,-9.467 20.727,-13.525c0.904,-0.898 0.904,-1.797 0.904,-2.7c0,-0.903 -0.904,-1.807 -1.807,-2.251c-31.533,-10.366 -47.305,-33.799 -47.305,-68.945c0,-22.979 10.362,-43.707 28.833,-56.773c12.617,-9.912 44.16,-22.08 64.888,-22.08l1.353,0c21.176,0.449 32.89,4.956 49.56,10.815c9.014,3.155 17.578,4.502 29.297,4.502c17.568,0 25.229,-5.405 31.533,-11.709c0.454,0.899 1.358,3.155 1.807,9.009c0.449,5.86 -1.353,14.419 -5.86,20.728c-3.603,4.956 -11.713,8.564 -19.824,8.564l-2.256,0c-8.11,-0.903 -11.718,-1.806 -11.718,-1.806l-1.797,0.903c-0.45,0.903 0,1.802 0.449,3.154l0.454,0.903c0.898,4.053 2.7,16.216 2.7,19.375c0,36.949 -14.868,53.165 -30.639,65.333c-15.323,11.264 -32.891,18.471 -52.72,20.278c-0.449,0 -2.246,0 -6.309,0.449c-2.251,0 -5.405,0.454 -5.859,0.454l-0.449,0c-3.604,0.899 -12.613,5.405 -12.613,13.062c0,6.757 4.053,14.873 23.428,16.225c4.053,0.449 8.106,0.449 12.617,0.904c25.684,1.796 57.676,4.052 72.544,9.008c20.728,7.657 33.794,26.133 33.794,48.213c0,33.35 -23.877,64.439 -63.53,83.809c-19.375,8.564 -38.755,13.071 -59.932,13.071Zm256.836,-314.062c-9.458,0 -18.022,2.246 -24.331,6.753c-17.568,10.815 -26.582,32.446 -26.582,63.984c0,59.033 29.736,100.488 72.095,100.488c12.617,0 22.529,-3.608 31.089,-10.815c13.066,-10.821 19.829,-32.447 19.829,-62.637c0,-58.574 -29.292,-97.778 -72.095,-97.778l-0.005,0.005Zm8.115,192.851c-76.601,0 -104.086,-56.323 -104.086,-109.043c0,-36.948 14.868,-65.337 44.604,-85.615c21.182,-13.066 46.416,-20.273 68.945,-20.273c58.575,0 99.58,41.904 99.58,102.285c0,41.001 -16.22,73.442 -47.314,93.271c-14.868,9.912 -40.552,19.375 -61.733,19.375l0.004,0Zm-802.959,-192.856c-9.462,0 -18.022,2.251 -24.336,6.758c-17.568,10.815 -26.582,32.446 -26.582,63.984c0,59.033 29.737,100.488 72.095,100.488c12.617,0 22.529,-3.608 31.094,-10.815c13.061,-10.821 19.824,-32.447 19.824,-62.637c0,-58.574 -28.838,-97.778 -72.095,-97.778Zm8.111,192.856c-76.602,0 -104.087,-56.323 -104.087,-109.043c0,-36.948 14.868,-65.337 44.604,-85.615c21.182,-13.066 46.416,-20.273 68.946,-20.273c58.579,0 99.58,41.904 99.58,102.285c0,41.001 -16.221,73.442 -47.315,93.271c-14.419,9.912 -40.102,19.375 -61.728,19.375Zm-515.03,-4.507c-0.903,-1.347 -1.806,-5.405 -1.352,-10.361c0,-3.608 0.903,-5.859 1.352,-6.758c9.463,-1.357 14.419,-2.71 19.825,-4.057c9.013,-2.256 12.617,-7.207 13.066,-18.472c1.358,-27.036 1.358,-78.408 0.903,-114.004l0,-0.903c0,-4.053 0,-9.014 -4.956,-12.617c-7.212,-4.502 -15.771,-8.555 -27.036,-11.719c-4.052,-1.343 -6.758,-3.599 -6.308,-6.299c0,-2.705 2.705,-5.859 8.564,-6.763c14.868,-1.352 53.613,-10.81 68.936,-17.573c0.903,0.898 2.256,3.608 2.256,7.212l-0.45,4.951c-0.454,4.961 -0.903,10.82 -0.903,16.675c0,1.802 1.807,3.154 3.603,3.154c0.904,0 1.807,-0.449 2.706,-0.903c28.837,-22.529 54.97,-30.64 68.486,-30.64c22.085,0 39.209,10.366 52.275,31.992c0.899,1.358 1.802,1.807 3.155,1.807c0.898,0 2.246,-0.449 2.7,-1.353c26.587,-20.278 53.174,-32.446 70.742,-32.446c41.904,0 66.689,31.094 66.689,83.814c0,14.868 0,34.243 -0.449,51.821c0,15.767 -0.449,30.186 -0.449,40.552c0,2.246 3.149,9.458 8.105,10.81c6.309,3.155 14.873,4.507 26.138,6.309l0.449,0c0.904,3.154 -0.898,14.868 -2.7,17.124c-2.705,0 -6.763,0 -11.264,-0.449c-11.407,-0.595 -22.827,-0.897 -34.249,-0.904c-27.934,0 -42.353,0.45 -56.328,1.353c-0.893,-3.604 -1.347,-14.419 0,-17.124c8.116,-1.348 12.168,-2.705 17.129,-4.053c9.014,-2.705 11.265,-6.763 11.719,-18.476c0,-8.56 1.797,-81.558 -0.908,-99.131c-2.7,-18.023 -16.221,-39.2 -45.962,-39.2c-11.265,0 -28.833,4.507 -45.957,17.569c-0.899,0.903 -1.807,3.154 -1.807,4.507l0,0.454c1.807,9.458 1.807,20.278 1.807,36.948l0,29.287c0,20.278 -0.454,39.204 0,53.618c0,9.917 5.859,12.168 10.815,13.975c2.705,0.444 4.502,0.898 6.758,1.348c4.053,0.903 8.11,1.806 14.419,3.154c0.903,1.807 0.903,7.661 -0.449,12.617c-0.454,2.705 -1.358,4.053 -1.807,4.507c-15.317,-0.449 -31.089,-0.903 -54.067,-0.903c-6.758,0 -18.477,0.454 -28.389,0.454c-8.115,0 -15.771,0.449 -20.273,0.449c-0.454,-0.903 -1.358,-4.053 -1.358,-9.014c0,-4.053 0.904,-7.207 1.807,-8.11c2.251,-0.449 4.053,-0.899 6.309,-0.899c5.4,-0.903 9.912,-1.806 14.414,-2.705c7.666,-2.251 10.366,-6.308 10.815,-16.22c1.353,-22.53 2.705,-86.963 -0.449,-103.189c-5.405,-26.133 -20.274,-39.199 -44.16,-39.199c-13.965,0 -31.543,6.758 -45.957,17.578c-2.256,1.797 -4.058,6.299 -4.058,10.357l0,26.586c0,32.442 0,72.998 0.449,90.572c0.454,5.4 2.251,11.714 12.617,13.965c2.256,0.449 5.86,1.352 10.367,1.806l8.105,1.348c0.908,2.705 0.454,13.52 -1.348,17.124c-4.506,0 -9.912,-0.449 -16.225,-0.449c-9.458,-0.454 -21.626,-0.904 -35.142,-0.904c-15.771,0 -27.036,0.45 -36.05,0.904c-6.308,-0.904 -11.264,-0.904 -16.67,-0.904Z" style="fill:#002b4d;fill-opacity:0.447059;"/></svg>