<?xml version="1.0" encoding="UTF-8" standalone="no"?><!DOCTYPE svg PUBLIC "-//W3C//DTD SVG 1.1//EN" "http://www.w3.org/Graphics/SVG/1.1/DTD/svg11.dtd"><svg width="100%" height="100%" viewBox="0 0 311 682" version="1.1" xmlns="http://www.w3.org/2000/svg" xmlns:xlink="http://www.w3.org/1999/xlink" xml:space="preserve" xmlns:serif="http://www.serif.com/" style="fill-rule:evenodd;clip-rule:evenodd;stroke-linejoin:round;stroke-miterlimit:1.41421;"><path d="M167.29,681.88l-7.456,-1.653c0,0 3.675,-39.447 -0.311,-59.746c-1.313,-6.684 -13.704,-16.9 -6.837,-11.731c-9.092,-6.844 -7.555,-188.365 25.384,0c0,0 -8.05,47.761 -10.051,54.016c-2.184,6.136 -0.729,19.114 -0.729,19.114Z" style="fill:#002b4d;fill-opacity:0.243137;"/><path d="M181.074,602.896c0,0 161.768,-106.343 123.912,-327.588c-36.495,-160.855 -122.559,-213.575 -132.022,-233.853c-10.361,-14.419 -20.278,-39.648 -20.278,-39.648l6.762,447.431c0,0.32 -6.945,68.294 1.439,114.203c3.506,19.2 9.694,34.541 20.192,39.459" style="fill:#002b4d;fill-opacity:0.458824;"/><path d="M143.228,608.75c0,0 -151.856,-103.638 -142.842,-286.123c8.56,-182.49 115.801,-272.158 136.528,-288.379c13.521,-14.419 13.97,-19.829 14.873,-34.248c9.463,20.278 7.661,303.252 9.009,336.592c4.053,128.418 -7.207,247.832 -17.568,272.158Z" style="fill:#002b4d;fill-opacity:0.321569;"/></svg>