<?xml version="1.0" encoding="UTF-8" standalone="no"?><!DOCTYPE svg PUBLIC "-//W3C//DTD SVG 1.1//EN" "http://www.w3.org/Graphics/SVG/1.1/DTD/svg11.dtd"><svg width="100%" height="100%" viewBox="0 0 2499 2453" version="1.1" xmlns="http://www.w3.org/2000/svg" xmlns:xlink="http://www.w3.org/1999/xlink" xml:space="preserve" xmlns:serif="http://www.serif.com/" style="fill-rule:evenodd;clip-rule:evenodd;stroke-linejoin:round;stroke-miterlimit:1.41421;"><path d="M2301.01,1896.6c-135.918,-3.389 -241.26,10.205 -329.609,47.578c-25.489,10.185 -66.27,10.195 -69.668,42.48c13.593,13.594 15.293,35.684 27.187,54.366c20.41,33.974 56.065,79.853 88.35,103.652c35.674,27.178 71.367,54.355 108.73,78.144c66.27,40.782 141.035,64.561 205.596,105.342c37.393,23.77 74.746,54.375 112.129,79.854c18.691,13.574 30.576,35.683 54.375,44.17l0,-5.088c-11.904,-15.303 -15.303,-37.383 -27.188,-54.375c-16.972,-16.992 -33.984,-32.285 -50.976,-49.278c-49.268,-66.25 -110.43,-124.023 -176.69,-171.591c-54.365,-37.383 -173.31,-88.35 -195.39,-151.221c0,0 -1.709,-1.689 -3.399,-3.389c37.373,-3.398 81.543,-16.992 117.237,-27.187c57.763,-15.303 110.429,-11.895 169.902,-27.188c27.178,-6.797 54.365,-15.293 81.543,-23.789l0,-15.283c-30.566,-30.586 -52.656,-71.357 -84.941,-100.244c-86.651,-74.775 -181.807,-147.822 -280.342,-208.984c-52.676,-33.985 -120.645,-56.075 -176.709,-84.952c-20.371,-10.205 -54.365,-15.293 -66.25,-32.285c-30.596,-37.373 -47.588,-86.64 -69.668,-130.82c-49.258,-93.457 -96.846,-197.09 -139.326,-295.625c-30.567,-66.27 -49.258,-132.539 -86.641,-193.692c-175,-288.837 -365.293,-463.837 -657.52,-635.449c-62.871,-35.674 -137.626,-50.967 -217.48,-69.648c-42.461,-1.709 -84.951,-5.098 -127.422,-6.807c-27.187,-11.894 -54.375,-44.17 -78.164,-59.463c-96.826,-61.172 -346.601,-193.681 -417.959,-18.681c-45.879,110.429 67.969,219.16 107.031,275.244c28.907,39.072 66.27,83.242 86.66,127.422c11.895,28.867 15.284,59.472 27.178,90.049c27.197,74.736 52.666,158.007 88.36,227.675c18.691,35.674 39.072,73.047 62.861,105.332c13.594,18.682 37.373,27.188 42.48,57.764c-23.779,33.984 -25.488,84.961 -39.091,127.432c-61.163,191.992 -37.364,429.853 49.277,570.869c27.178,42.461 91.748,135.937 178.398,100.244c76.465,-30.576 59.473,-127.422 81.543,-212.373c5.118,-20.41 1.719,-33.985 11.905,-47.578l0,3.408c23.789,47.559 47.568,93.447 69.658,141.016c52.676,83.242 144.414,169.902 220.869,227.675c40.791,30.567 73.066,83.243 124.043,101.934l0,-5.107l-3.408,0c-10.196,-15.293 -25.489,-22.081 -39.073,-33.985c-30.576,-30.566 -64.57,-67.949 -88.349,-101.933c-71.348,-95.157 -134.229,-200.489 -190.293,-309.229c-27.178,-52.656 -50.977,-110.43 -73.057,-163.096c-10.205,-20.41 -10.205,-50.976 -27.187,-61.162c-25.489,37.373 -62.862,69.658 -81.553,115.528c-32.266,73.056 -35.674,163.105 -47.568,256.543c-6.797,1.718 -3.409,0 -6.807,3.418c-54.355,-13.614 -73.047,-69.668 -93.447,-117.247c-50.977,-120.625 -59.473,-314.316 -15.283,-453.632c11.894,-35.684 62.871,-147.813 42.48,-181.797c-10.195,-32.285 -44.189,-50.977 -62.871,-76.455c-22.08,-32.286 -45.879,-73.047 -61.162,-108.741c-40.781,-95.146 -61.172,-200.488 -105.342,-295.634c-20.391,-44.18 -56.055,-90.039 -84.951,-130.821c-32.276,-45.869 -67.959,-78.164 -93.447,-132.529c-8.487,-18.682 -20.391,-49.268 -6.797,-69.658c3.398,-13.594 10.185,-18.682 23.789,-22.08c22.09,-18.701 84.961,5.088 107.031,15.283c62.871,25.469 115.537,49.277 168.213,84.951c23.779,16.992 49.268,49.277 79.844,57.774l35.683,0c54.375,11.884 115.528,3.398 166.504,18.681c90.059,28.877 171.602,71.358 244.668,117.237c222.578,141.015 406.055,341.503 530.098,581.064c20.39,39.062 28.877,74.766 47.568,115.527c35.694,83.262 79.863,168.213 115.528,249.766c35.683,79.844 69.658,161.406 120.634,227.676c25.489,35.664 127.422,54.365 173.301,73.056c33.984,15.284 86.66,28.887 117.236,47.569c57.764,35.664 115.528,76.465 169.903,115.527c27.187,20.391 112.129,62.871 117.236,96.846Z" style="fill:#002b4d;fill-opacity:0.396078;fill-rule:nonzero;"/><path d="M567.985,420.136c-28.877,0 -49.258,3.418 -69.649,8.506l0,3.398l3.399,0c13.603,27.188 37.373,45.879 54.355,69.658c13.604,27.178 25.488,54.375 39.092,81.563c1.689,-1.709 3.389,-3.398 3.389,-3.398c23.798,-17.002 35.683,-44.18 35.683,-84.961c-10.195,-11.885 -11.894,-23.78 -20.39,-35.674c-10.186,-17.002 -32.286,-25.489 -45.879,-39.092Z" style="fill:#002b4d;fill-opacity:0.396078;fill-rule:nonzero;"/></svg>