<?xml version="1.0" encoding="UTF-8" standalone="no"?><!DOCTYPE svg PUBLIC "-//W3C//DTD SVG 1.1//EN" "http://www.w3.org/Graphics/SVG/1.1/DTD/svg11.dtd"><svg width="100%" height="100%" viewBox="0 0 280 150" version="1.1" xmlns="http://www.w3.org/2000/svg" xmlns:xlink="http://www.w3.org/1999/xlink" xml:space="preserve" xmlns:serif="http://www.serif.com/" style="fill-rule:evenodd;clip-rule:evenodd;stroke-linejoin:round;stroke-miterlimit:1.41421;"><rect id="NAME" x="0" y="0" width="280" height="150" style="fill:none;"/><g><path id="New-Document" serif:id="New Document" d="M180.294,116.106l-10.447,-11.094l-11.753,0l0,31.897l22.2,0l0,-20.803Zm-10.447,-9.222l8.684,9.222l-8.684,0l0,-9.222Zm9.141,28.638l-19.588,0l0,-29.124l9.141,0l0,11.095l10.447,0l0,18.029Z" style="fill:#929292;fill-rule:nonzero;"/><clipPath id="_clip1"><rect id="linkedIn" x="93.021" y="105.095" width="30.817" height="32.471"/></clipPath><g clip-path="url(#_clip1)"><path d="M119.275,132.766l-4.563,0l0,-7.534c0,-1.797 -0.035,-4.109 -2.378,-4.109c-2.379,0 -2.743,1.955 -2.743,3.976l0,7.667l-4.563,0l0,-15.494l4.383,0l0,2.112l0.059,0c0.613,-1.218 2.102,-2.503 4.328,-2.503c4.624,0 5.479,3.207 5.479,7.381l0,8.504l-0.002,0Zm-19.401,-17.614c-1.469,0 -2.649,-1.253 -2.649,-2.794c0,-1.54 1.181,-2.791 2.649,-2.791c1.463,0 2.65,1.251 2.65,2.791c0,1.541 -1.188,2.794 -2.65,2.794Zm2.288,17.614l-4.577,0l0,-15.494l4.577,0l0,15.494Zm19.396,-27.671l-26.263,0c-1.257,0 -2.274,1.048 -2.274,2.34l0,27.792c0,1.294 1.017,2.34 2.274,2.34l26.26,0c1.255,0 2.283,-1.046 2.283,-2.34l0,-27.792c0,-1.292 -1.028,-2.34 -2.283,-2.34l0.003,0Z" style="fill:#919191;fill-rule:nonzero;stroke:#fff;stroke-width:1.32px;"/></g><path d="M46.51,105.421c-8.677,0 -15.705,7.41 -15.705,16.549c0,7.313 4.499,13.515 10.738,15.701c0.786,0.156 1.074,-0.356 1.074,-0.796c0,-0.393 -0.014,-1.434 -0.02,-2.813c-4.369,0.998 -5.29,-2.221 -5.29,-2.221c-0.715,-1.91 -1.748,-2.42 -1.748,-2.42c-1.422,-1.026 0.11,-1.005 0.11,-1.005c1.578,0.116 2.406,1.704 2.406,1.704c1.4,2.531 3.676,1.8 4.574,1.377c0.142,-1.07 0.546,-1.8 0.995,-2.214c-3.488,-0.413 -7.154,-1.837 -7.154,-8.178c0,-1.806 0.609,-3.282 1.616,-4.44c-0.176,-0.418 -0.706,-2.101 0.138,-4.38c0,0 1.315,-0.444 4.319,1.696c1.256,-0.368 2.591,-0.55 3.926,-0.558c1.335,0.008 2.67,0.19 3.927,0.558c2.984,-2.14 4.299,-1.696 4.299,-1.696c0.844,2.279 0.314,3.962 0.157,4.38c1.002,1.158 1.61,2.634 1.61,4.44c0,6.358 -3.671,7.758 -7.166,8.165c0.55,0.496 1.061,1.511 1.061,3.061c0,2.215 -0.02,3.994 -0.02,4.532c0,0.434 0.275,0.951 1.08,0.786c6.283,-2.171 10.779,-8.377 10.779,-15.679c0,-9.139 -7.032,-16.549 -15.706,-16.549" style="fill:#919191;fill-rule:nonzero;"/><path id="Message" d="M217.252,119.623l11.764,5.379l5.099,12.649l13.736,-32.639l-30.599,14.611Zm26.315,-11.049l-14.075,15.047l-8.84,-4.071l22.915,-10.976Zm-13.259,15.992l14.007,-14.975l-10.268,24.352l-3.739,-9.377Z" style="fill:#929292;fill-rule:nonzero;"/><path d="M21.046,91.257l236.433,0" style="fill:#434343;stroke:#414141;stroke-width:0.5px;stroke-linecap:round;stroke-miterlimit:1.5;"/><text x="30.714px" y="70.39px" style="font-family:'PingFangSC-Thin', 'PingFang SC', sans-serif;font-weight:200;font-size:16px;fill:#434343;">Front End + Data Visualization</text><text x="16.294px" y="42.586px" style="font-family:'Courgette-Regular', 'Courgette';font-size:36px;fill:#434343;">George Ramírez</text></g></svg>