<?xml version="1.0" encoding="UTF-8" standalone="no"?><!DOCTYPE svg PUBLIC "-//W3C//DTD SVG 1.1//EN" "http://www.w3.org/Graphics/SVG/1.1/DTD/svg11.dtd"><svg width="100%" height="100%" viewBox="0 0 512 197" version="1.1" xmlns="http://www.w3.org/2000/svg" xmlns:xlink="http://www.w3.org/1999/xlink" xml:space="preserve" xmlns:serif="http://www.serif.com/" style="fill-rule:evenodd;clip-rule:evenodd;stroke-linejoin:round;stroke-miterlimit:1.41421;"><g><path d="M109.797,104.712c0,-2.081 -1.156,-4.046 -3.005,-5.086l-49.004,-28.2c-0.809,-0.463 -1.734,-0.694 -2.658,-0.809l-0.463,0c-0.924,0 -1.849,0.346 -2.658,0.809l-49.004,28.2c-1.849,1.04 -3.005,3.005 -3.005,5.086l0.116,75.817c0,1.04 0.577,2.08 1.502,2.543c0.925,0.578 2.08,0.578 2.889,0l29.126,-16.643c1.849,-1.04 3.004,-3.005 3.004,-5.085l0,-35.482c0,-2.081 1.156,-4.045 3.005,-5.085l12.367,-7.166c0.925,-0.578 1.965,-0.809 3.005,-0.809c1.04,0 2.08,0.231 2.889,0.809l12.367,7.166c1.849,1.04 3.005,3.004 3.005,5.085l0,35.482c0,2.08 1.156,4.045 3.005,5.085l29.125,16.643c0.925,0.578 2.08,0.578 3.005,0c0.925,-0.463 1.502,-1.503 1.502,-2.543l-0.115,-75.817Z" style="fill:#002b4d;fill-opacity:0.313726;fill-rule:nonzero;"/><path d="M345.34,0.347c-0.925,-0.463 -2.08,-0.463 -2.889,0c-0.925,0.578 -1.503,1.502 -1.503,2.542l0,75.125c0,0.693 -0.347,1.386 -1.04,1.849c-0.694,0.346 -1.387,0.346 -2.08,0l-12.251,-7.05c-1.85,-1.041 -4.046,-1.041 -5.895,0l-49.004,28.316c-1.849,1.04 -3.005,3.005 -3.005,5.085l0,56.516c0,2.081 1.156,4.046 3.005,5.086l49.004,28.316c1.849,1.04 4.045,1.04 5.895,0l49.004,-28.316c1.849,-1.04 3.005,-3.005 3.005,-5.086l0,-140.886c0,-2.196 -1.156,-4.161 -3.005,-5.201l-29.241,-16.296Zm-4.507,143.776c0,0.578 -0.232,1.04 -0.694,1.271l-16.758,9.708c-0.463,0.232 -1.041,0.232 -1.503,0l-16.758,-9.708c-0.463,-0.231 -0.694,-0.809 -0.694,-1.271l0,-19.417c0,-0.578 0.231,-1.04 0.694,-1.271l16.758,-9.709c0.462,-0.231 1.04,-0.231 1.503,0l16.758,9.709c0.462,0.231 0.694,0.809 0.694,1.271l0,19.417Z" style="fill:#002b4d;fill-opacity:0.396078;fill-rule:nonzero;"/><g><path d="M508.417,124.244c1.849,-1.04 2.89,-3.005 2.89,-5.086l0,-13.753c0,-2.08 -1.156,-4.045 -2.89,-5.085l-48.657,-28.201c-1.849,-1.04 -4.045,-1.04 -5.895,0l-49.004,28.316c-1.849,1.04 -3.005,3.005 -3.005,5.086l0,56.516c0,2.08 1.156,4.045 3.005,5.085l48.658,27.738c1.849,1.041 4.045,1.041 5.779,0l29.471,-16.411c0.925,-0.463 1.503,-1.503 1.503,-2.543c0,-1.04 -0.578,-2.08 -1.503,-2.543l-49.235,-28.316c-0.925,-0.577 -1.502,-1.502 -1.502,-2.542l0,-17.683c0,-1.041 0.577,-2.081 1.502,-2.543l15.372,-8.784c0.924,-0.578 2.08,-0.578 3.005,0l15.371,8.784c0.925,0.578 1.503,1.502 1.503,2.543l0,13.869c0,1.04 0.578,2.08 1.502,2.542c0.925,0.578 2.08,0.578 3.005,0l29.125,-16.989Z" style="fill:#002b4d;fill-opacity:0.313726;fill-rule:nonzero;"/><path d="M456.061,121.586c0.347,-0.232 0.809,-0.232 1.156,0l9.362,5.432c0.347,0.231 0.578,0.577 0.578,1.04l0,10.864c0,0.462 -0.231,0.809 -0.578,1.04l-9.362,5.432c-0.347,0.231 -0.809,0.231 -1.156,0l-9.361,-5.432c-0.347,-0.231 -0.578,-0.578 -0.578,-1.04l0,-10.864c0,-0.463 0.231,-0.809 0.578,-1.04l9.361,-5.432Z" style="fill:#002b4d;fill-opacity:0.313726;fill-rule:nonzero;"/></g><g><path id="path-2" d="M191.74,72.35c-1.849,-1.04 -4.045,-1.04 -5.894,0l-48.658,28.085c-1.849,1.04 -2.889,3.005 -2.889,5.086l0,56.285c0,2.08 1.156,4.045 2.889,5.085l48.658,28.085c1.849,1.04 4.045,1.04 5.894,0l48.657,-28.085c1.85,-1.04 2.89,-3.005 2.89,-5.085l0,-56.285c0,-2.081 -1.156,-4.046 -2.89,-5.086l-48.657,-28.085Z" style="fill:url(#_Linear1);fill-rule:nonzero;"/></g></g><defs><linearGradient id="_Linear1" x1="0" y1="0" x2="1" y2="0" gradientUnits="userSpaceOnUse" gradientTransform="matrix(-43.9937,89.7471,-89.7471,-43.9937,208.616,93.2864)"><stop offset="0" style="stop-color:#002b4d;stop-opacity:0.313725"/><stop offset="1" style="stop-color:#002b4d;stop-opacity:0.313725"/></linearGradient></defs></svg>