<?xml version="1.0" standalone="no"?>
<!DOCTYPE svg PUBLIC "-//W3C//DTD SVG 20010904//EN"
 "http://www.w3.org/TR/2001/REC-SVG-20010904/DTD/svg10.dtd">
<svg version="1.0" xmlns="http://www.w3.org/2000/svg"
 width="256.000000pt" height="256.000000pt" viewBox="0 0 256.000000 256.000000"
 preserveAspectRatio="xMidYMid meet">
<metadata>
Created by potrace 1.11, written by Peter Selinger 2001-2013
</metadata>
<g transform="translate(0.000000,256.000000) scale(0.100000,-0.100000)"
fill="#000000" stroke="none">
<path d="M0 2230 c0 -181 2 -330 4 -330 2 0 16 21 31 46 41 70 152 182 234
236 199 130 492 143 719 31 79 -39 168 -113 202 -169 12 -19 30 -34 40 -34 17
0 67 49 87 85 7 13 15 14 36 6 53 -20 52 -38 -12 -174 -33 -69 -72 -167 -87
-218 -31 -108 -50 -135 -88 -125 -36 9 -42 43 -21 120 59 216 -69 397 -325
462 -118 30 -234 4 -327 -72 -161 -132 -323 -549 -337 -866 -11 -265 96 -419
322 -462 135 -26 233 2 276 77 21 37 106 306 106 335 0 6 -39 23 -87 37 -93
28 -125 51 -116 86 13 48 34 45 322 -40 150 -44 279 -86 287 -92 8 -6 14 -24
14 -39 0 -40 -36 -53 -97 -35 -26 8 -48 13 -49 12 -1 -1 -38 -123 -82 -272
-68 -230 -83 -272 -103 -283 -40 -23 -75 -2 -82 48 -7 56 -15 62 -62 48 -64
-19 -228 -14 -326 10 -191 47 -312 113 -419 229 l-60 66 0 -477 0 -476 1280 0
1280 0 0 616 0 616 -33 -48 c-61 -92 -170 -150 -299 -161 -38 -3 -68 -7 -68
-8 0 0 19 -22 43 -47 55 -59 92 -128 113 -209 20 -77 15 -142 -21 -292 -16
-65 -25 -128 -23 -160 l3 -52 35 0 c28 0 38 6 56 35 49 78 90 95 115 48 14
-26 4 -62 -31 -114 -79 -114 -259 -111 -379 5 -93 91 -111 222 -62 446 26 116
24 236 -4 284 -29 50 -59 67 -166 100 l-97 28 -87 -301 c-49 -165 -90 -307
-93 -313 -5 -14 -6 -14 94 -42 72 -21 95 -43 87 -82 -10 -44 -37 -39 -353 55
-168 50 -311 95 -318 99 -6 5 -12 22 -12 38 0 48 33 56 118 30 39 -11 76 -21
84 -21 9 0 73 201 207 658 107 361 196 665 199 674 3 13 -13 22 -79 42 -87 27
-112 47 -103 84 3 11 15 24 27 29 23 10 27 9 537 -143 269 -80 397 -151 481
-267 l29 -40 0 486 0 487 -1280 0 -1280 0 0 -330z"/>
<path d="M1866 1507 c-49 -166 -90 -307 -93 -313 -5 -15 178 -65 257 -71 55
-3 71 0 105 19 76 44 151 216 162 369 9 122 -20 180 -110 226 -53 27 -190 73
-217 73 -11 0 -38 -80 -104 -303z"/>
</g>
</svg>
